<svg xmlns="http://www.w3.org/2000/svg" width="387" height="64" viewBox="0 0 387 64">
  <g id="Сгруппировать_74566" data-name="Сгруппировать 74566" transform="translate(-95 -80.312)">
    <g id="Сгруппировать_74565" data-name="Сгруппировать 74565" transform="translate(95 80)">
      <rect id="Прямоугольник_10014" data-name="Прямоугольник 10014" width="387" height="64" rx="9" transform="translate(0 0.312)" fill="#e80024"/>
      <g id="Layer_2" data-name="Layer 2" transform="translate(9.555 7.246)">
        <path id="Контур_57688" data-name="Контур 57688" d="M47.343,79.724a2.4,2.4,0,0,1-1.518.24H36.074c-1.119.081-1.518-.4-1.277-1.359l7.911-33.884a20.919,20.919,0,0,1,1.839-4.874,15.58,15.58,0,0,1,3.2-4.236,15.319,15.319,0,0,1,4.795-2.957,17.787,17.787,0,0,1,6.551-1.119H80.108a1.516,1.516,0,0,1,1.039.24c.16.159.08.639-.08,1.438l-1.839,7.833a2.323,2.323,0,0,1-.559,1.2,1.683,1.683,0,0,1-1.119.319h-17.1a6.221,6.221,0,0,0-2.317.4,4.486,4.486,0,0,0-1.439.958,4.225,4.225,0,0,0-.879,1.278,9.134,9.134,0,0,0-.48,1.359l-.958,4.235H72.594a1.514,1.514,0,0,1,1.039.24c.16.16.08.639-.08,1.438l-1.681,7.194c-.241,1.039-.8,1.6-1.682,1.6H51.9L47.822,78.605a2.157,2.157,0,0,1-.479,1.119" transform="translate(-34.73 -30.804)" fill="#fff"/>
        <path id="Контур_57689" data-name="Контур 57689" d="M115.778,55.864A46.749,46.749,0,0,1,112.1,66.332a27.967,27.967,0,0,1-5.753,7.911A23.323,23.323,0,0,1,98.277,79.2a29.75,29.75,0,0,1-10.469,1.755,22.458,22.458,0,0,1-9.351-1.681A12.072,12.072,0,0,1,72.863,74.4a16.859,16.859,0,0,1-2.078-7.828,39.166,39.166,0,0,1,1.2-10.468,41.739,41.739,0,0,1,3.836-10.31,31.209,31.209,0,0,1,5.994-7.911,24.979,24.979,0,0,1,7.992-5.035,27,27,0,0,1,9.91-1.92,21.826,21.826,0,0,1,9.27,1.76,13.1,13.1,0,0,1,5.674,5.035,16.62,16.62,0,0,1,2.238,7.832,37,37,0,0,1-1.119,10.31m-13.826.08a39.061,39.061,0,0,0,.72-5.195,12.588,12.588,0,0,0-.319-4.235,5.355,5.355,0,0,0-1.681-2.877A5.92,5.92,0,0,0,96.914,42.6a7.359,7.359,0,0,0-3.752,1.037,11.439,11.439,0,0,0-3.118,2.8,19.733,19.733,0,0,0-2.4,4.076,27.779,27.779,0,0,0-1.6,4.955,39.108,39.108,0,0,0-.958,5.753,11.767,11.767,0,0,0,.4,4.316,5.116,5.116,0,0,0,1.918,2.716,6.23,6.23,0,0,0,3.757.958,7.577,7.577,0,0,0,3.916-1.119A10.382,10.382,0,0,0,98.2,65.216a18.51,18.51,0,0,0,2.238-4.235,35.775,35.775,0,0,0,1.6-5.035" transform="translate(-27.965 -30.918)" fill="#fff"/>
        <path id="Контур_57690" data-name="Контур 57690" d="M189.973,53.577a8,8,0,0,1,2.8,2.078,8.719,8.719,0,0,1,1.518,2.877,10.159,10.159,0,0,1,.48,3.277,14.315,14.315,0,0,1-.4,3.355,17.22,17.22,0,0,1-2.717,6.075,19.465,19.465,0,0,1-4.636,4.715,21.334,21.334,0,0,1-6.074,3.036,22.263,22.263,0,0,1-6.953,1.039h-17.9c-1.918,0-3.037-.319-3.437-1.039a5.141,5.141,0,0,1,0-3.516l9.19-39.318a7.188,7.188,0,0,1,1.6-3.436c.719-.8,2.077-1.119,3.916-1.119h17.981a21.879,21.879,0,0,1,5.674.719,10,10,0,0,1,4.156,2.239,7.991,7.991,0,0,1,2.317,3.916,11.659,11.659,0,0,1-.16,5.674,12.863,12.863,0,0,1-2.638,5.195,15.2,15.2,0,0,1-4.555,3.916Zm-18.219-4.155h7.194a5.846,5.846,0,0,0,2.716-.72,3.835,3.835,0,0,0,1.758-2.717,2.636,2.636,0,0,0-.4-2.4,2.954,2.954,0,0,0-2.317-.8h-7.514ZM181.1,64.208a3.914,3.914,0,0,0-.4-3.276,3.637,3.637,0,0,0-3.2-1.278h-8.07l-2.158,9.031h8.151a5.991,5.991,0,0,0,2.4-.4,5.514,5.514,0,0,0,1.681-1.118,5.449,5.449,0,0,0,1.119-1.439,6.792,6.792,0,0,0,.559-1.518" transform="translate(-12.655 -30.789)" fill="#fff"/>
        <path id="Контур_57691" data-name="Контур 57691" d="M223.9,80.045H202.568a14.4,14.4,0,0,1-6.474-1.2,7.59,7.59,0,0,1-3.355-3.116,8.778,8.778,0,0,1-1.039-4.235,20.519,20.519,0,0,1,.559-4.636l5.194-22.136a20.908,20.908,0,0,1,1.839-4.875,15.812,15.812,0,0,1,3.2-4.235,15.344,15.344,0,0,1,4.795-2.959,17.885,17.885,0,0,1,6.473-1.119h20.378a1.513,1.513,0,0,1,1.038.24c.16.159.081.639-.08,1.438l-1.839,7.833a2.227,2.227,0,0,1-.559,1.2,1.594,1.594,0,0,1-1.118.319H215.114a6.231,6.231,0,0,0-2.318.4,4.481,4.481,0,0,0-1.438.958,4.155,4.155,0,0,0-.879,1.278,9.973,9.973,0,0,0-.48,1.359l-.72,2.877H227.82a1.512,1.512,0,0,1,1.038.24,2.466,2.466,0,0,1-.08,1.438L227.1,58.307c-.24,1.039-.8,1.6-1.681,1.6H206.882l-1.2,5.195a5.5,5.5,0,0,0-.16,2.078,1.759,1.759,0,0,0,.559,1.119,2.481,2.481,0,0,0,1.2.479h19.18a1.522,1.522,0,0,1,1.039.24c.16.16.08.64-.08,1.439l-1.836,7.83c-.241,1.039-.8,1.6-1.682,1.6" transform="translate(-5.27 -30.804)" fill="#fff"/>
        <path id="Контур_57692" data-name="Контур 57692" d="M268.443,42.564H256.536l-8.391,35.964a1.5,1.5,0,0,1-2,1.438h-9.829c-1.039,0-1.519-.48-1.278-1.438l8.392-35.964h-11.51c-.96,0-1.359-.559-1.119-1.6l1.837-7.752a2.556,2.556,0,0,1,.64-1.439,2.311,2.311,0,0,1,1.2-.241h36.439a1.677,1.677,0,0,1,1.119.24q.241.239,0,1.438L270.2,40.965a1.756,1.756,0,0,1-1.837,1.6" transform="translate(2.056 -30.805)" fill="#fff"/>
        <path id="Контур_57693" data-name="Контур 57693" d="M128.1,53.753,122.18,78.529a1.5,1.5,0,0,1-2,1.437h-9.829c-1.039,0-1.438-.479-1.277-1.438l9.987-41.477a8.329,8.329,0,0,1,2.078-4.4c.879-.8,2.317-1.038,4.235-1.038h5.354l1.278.4a3.27,3.27,0,0,1,1.038.958,10.322,10.322,0,0,1,.96,1.681L140.4,49.438l3.436,8.471h.48l5.916-24.933a2.469,2.469,0,0,1,.48-1.119,2.394,2.394,0,0,1,1.521-.323h9.829c1.038,0,1.438.48,1.277,1.438L153.43,74.528a9.031,9.031,0,0,1-1.918,3.916q-1.359,1.6-4.475,1.518h-5.355a3.9,3.9,0,0,1-1.359-.4A3.447,3.447,0,0,1,139.2,78.6a7.056,7.056,0,0,1-.958-1.681l-6.317-14.54-3.516-8.551Z" transform="translate(-20.783 -30.805)" fill="#fff"/>
        <path id="Контур_57694" data-name="Контур 57694" d="M262.357,74.019H253.8a1.278,1.278,0,0,1-1.277-1.2,1.87,1.87,0,0,1,0-.4l2.078-9.031a1.276,1.276,0,0,1,1.277-1.038h8.551a1.278,1.278,0,0,1,1.359,1.191v.007h0a1.052,1.052,0,0,1-.08.319l-2.076,9.111a1.279,1.279,0,0,1-1.277,1.039" transform="translate(6.144 -25.019)" fill="#fff"/>
        <path id="Контур_57695" data-name="Контур 57695" d="M307.254,53.577a7.754,7.754,0,0,1,2.8,2.078,8.744,8.744,0,0,1,1.519,2.877,10.4,10.4,0,0,1,.479,3.277,14.922,14.922,0,0,1-.4,3.356,17.424,17.424,0,0,1-2.717,6.074,19.785,19.785,0,0,1-4.634,4.715,21.81,21.81,0,0,1-6.074,3.037,22.77,22.77,0,0,1-6.953,1.039h-17.9c-1.918,0-3.037-.319-3.436-1.039a5.144,5.144,0,0,1,0-3.517l9.19-39.318a7.116,7.116,0,0,1,1.6-3.436c.72-.8,2.078-1.119,3.917-1.119h17.98a21.183,21.183,0,0,1,5.675.719,9.917,9.917,0,0,1,4.156,2.239,7.992,7.992,0,0,1,2.317,3.916,11.673,11.673,0,0,1-.159,5.674,12.951,12.951,0,0,1-2.638,5.195,15.437,15.437,0,0,1-4.555,3.916Zm-18.22-4.155h7.194a6.086,6.086,0,0,0,2.717-.72,3.835,3.835,0,0,0,1.758-2.717,2.636,2.636,0,0,0-.4-2.4,2.956,2.956,0,0,0-2.317-.8h-7.514Zm9.349,14.785a3.914,3.914,0,0,0-.4-3.276,3.637,3.637,0,0,0-3.2-1.278h-8.07l-2.158,9.031h8.151a6.33,6.33,0,0,0,2.4-.4,5.661,5.661,0,0,0,1.681-1.118,5.8,5.8,0,0,0,1.119-1.439,7.119,7.119,0,0,0,.559-1.518" transform="translate(9.356 -30.789)" fill="#fff"/>
        <path id="Контур_57696" data-name="Контур 57696" d="M351.135,33.52,331.478,61.65a2.147,2.147,0,0,0-.4.8l-4.875,16.3a1.682,1.682,0,0,1-1.6,1.2h-9.988a1.277,1.277,0,0,1-1.359-1.6l3.916-15.743a1.842,1.842,0,0,0,0-1.039L311.34,33.12A1.277,1.277,0,0,1,312.3,31.6h8.712a1.36,1.36,0,0,1,1.438,1.119l2.959,17.742h.639L339.07,32.4a1.756,1.756,0,0,1,1.438-.8h9.748a1.119,1.119,0,0,1,.96,1.839" transform="translate(17.178 -30.79)" fill="#fff"/>
      </g>
    </g>
  </g>
</svg>
